# xmcd
#
# Track frame offsets:
#	150
#	12924
#	44275
#	61838
#	83137
#	99055
#	111880
#	127399
#	150106
#	161805
#	186420
#	200989
#	217904
#	235231
#
# Disc length: 3270 seconds
# Revision: 1
# Processed by: cddbd v1.5.2PL0 Copyright (c) Steve Scherf et al.
# Submitted via: dBpowerAMP V12.0
#
DISCID=b90cc40e
DTITLE=William Clarke - The Early Years, Vol.1
DYEAR=2005
DGENRE=Blues
TTITLE0=Hittin' Heavy
TTITLE1=Blues Afterwhile
TTITLE2=Diggin' My Potatoes
TTITLE3=So All Alone
TTITLE4=So All Alone
TTITLE5=Come On Baby
TTITLE6=Keep It to Yourself
TTITLE7=Teardrops Fallin'
TTITLE8=Blowin My Nuts
TTITLE9=The Little Girl I'm Lovin'
TTITLE10=Fine Little Mama
TTITLE11=Give Me Back That Wig
TTITLE12=I Miss You So
TTITLE13=Gina's Groove
EXTD=
EXTT0=
EXTT1=
EXTT2=
EXTT3=
EXTT4=
EXTT5=
EXTT6=
EXTT7=
EXTT8=
EXTT9=
EXTT10=
EXTT11=
EXTT12=
EXTT13=
PLAYORDER=
